<svg xmlns="http://www.w3.org/2000/svg" width="16.03" height="14.26" viewBox="0 0 16.03 14.26">
  <defs>
    <style>
      .cls-1 {
        fill: #95e1d3;
        fill-rule: evenodd;
      }
    </style>
  </defs>
  <path id="SPEECH_BUBBLE_2" data-name="SPEECH BUBBLE 2" class="cls-1" d="M1257.42,9121.36a11.325,11.325,0,0,1-1.68-.25,6.357,6.357,0,0,1-5.65,2.23c2.44-1.15,2.39-3.07,1.96-3.32a5.609,5.609,0,0,1-3.07-4.76c0-3.4,3.73-6.14,8.44-6.14s7.57,2.74,7.57,6.14S1262.12,9121.36,1257.42,9121.36Zm-4.18-7.48a1.5,1.5,0,1,0,1.5,1.49A1.5,1.5,0,0,0,1253.24,9113.88Zm3.75,0a1.5,1.5,0,1,0,1.5,1.49A1.5,1.5,0,0,0,1256.99,9113.88Zm3.75,0a1.5,1.5,0,1,0,1.5,1.49A1.5,1.5,0,0,0,1260.74,9113.88Z" transform="translate(-1248.97 -9109.12)"/>
</svg>
